<?xml version="1.0" standalone="no"?>
<!DOCTYPE svg PUBLIC "-//W3C//DTD SVG 20010904//EN"
 "http://www.w3.org/TR/2001/REC-SVG-20010904/DTD/svg10.dtd">
<svg version="1.0" xmlns="http://www.w3.org/2000/svg"
 width="700.000000pt" height="700.000000pt" viewBox="0 0 700.000000 700.000000"
 preserveAspectRatio="xMidYMid meet">
<metadata>
Created by potrace 1.14, written by Peter Selinger 2001-2017
</metadata>
<g transform="translate(0.000000,700.000000) scale(0.100000,-0.100000)"
fill="#000000" stroke="none">
<path d="M3365 6990 c-218 -18 -419 -75 -620 -175 -171 -86 -295 -175 -430
-310 -164 -163 -274 -321 -362 -517 -86 -195 -130 -387 -140 -608 l-6 -135
-132 -127 c-72 -70 -170 -172 -216 -228 -371 -446 -586 -1003 -606 -1563 l-6
-168 -56 -36 c-242 -154 -463 -397 -595 -653 -255 -494 -255 -1056 0 -1550 83
-161 192 -307 331 -440 133 -128 247 -210 403 -290 537 -273 1174 -240 1680
87 110 72 164 116 277 226 l91 90 104 -16 c268 -42 544 -42 826 -1 l112 16
108 -103 c59 -57 150 -134 202 -171 610 -433 1428 -413 2015 47 187 147 352
346 459 555 311 604 237 1316 -192 1843 -87 107 -250 256 -359 327 l-99 65 -7
160 c-23 548 -211 1061 -546 1495 -96 124 -226 264 -325 350 l-86 75 0 73 c0
249 -69 534 -182 755 -318 620 -959 981 -1643 927z m360 -396 c544 -89 988
-544 1069 -1095 104 -702 -373 -1362 -1070 -1484 -112 -19 -336 -19 -448 0
-647 113 -1114 695 -1082 1350 38 791 743 1357 1531 1229z m-1805 -1884 c34
-96 110 -244 178 -345 169 -251 395 -448 667 -580 555 -270 1206 -216 1716
144 120 85 305 270 391 391 78 110 168 278 208 388 15 42 32 77 36 76 5 0 46
-42 91 -93 260 -296 441 -660 517 -1042 21 -106 49 -319 42 -326 -1 -2 -18 2
-37 7 -19 6 -86 20 -149 31 -130 22 -374 27 -500 9 -373 -53 -695 -214 -966
-484 -228 -229 -378 -491 -449 -789 -36 -151 -46 -235 -46 -407 1 -239 41
-437 137 -663 18 -44 31 -83 28 -86 -7 -8 -561 -8 -568 0 -3 3 14 54 39 115
91 226 126 404 126 644 0 278 -55 510 -179 756 -154 307 -439 592 -746 746
-166 84 -353 142 -536 168 -174 25 -461 9 -630 -35 -30 -8 -55 -13 -56 -12 -7
7 21 222 42 325 69 345 224 679 441 953 88 110 165 191 173 182 4 -4 17 -37
30 -73z m-4 -1725 c124 -22 233 -57 341 -109 392 -191 658 -544 728 -965 24
-139 16 -388 -15 -511 -129 -517 -519 -890 -1035 -992 -127 -25 -332 -26 -463
-4 -543 96 -973 525 -1068 1068 -21 120 -21 326 0 446 95 540 522 969 1061
1066 109 19 340 20 451 1z m3610 0 c264 -46 516 -176 704 -365 187 -187 320
-442 366 -702 21 -121 21 -325 -1 -448 -51 -296 -217 -586 -442 -772 -103 -85
-150 -117 -259 -171 -191 -97 -372 -139 -594 -139 -498 1 -941 277 -1165 723
-95 191 -135 362 -135 584 0 222 40 393 135 584 186 370 535 632 940 705 109
19 340 20 451 1z"/>
<path d="M3536 6399 c-84 -19 -136 -85 -145 -183 l-6 -61 -55 -6 c-112 -12
-209 -57 -292 -137 -117 -111 -160 -211 -162 -372 -1 -85 4 -118 22 -170 51
-148 162 -262 315 -323 43 -17 83 -22 237 -27 205 -7 229 -13 267 -69 41 -61
22 -158 -39 -193 -17 -10 -106 -14 -348 -18 -320 -5 -326 -5 -363 -29 -62 -38
-92 -93 -92 -166 0 -76 33 -133 98 -167 38 -21 58 -23 230 -26 l187 -4 0 -36
c0 -62 20 -112 59 -151 72 -72 181 -76 257 -9 51 45 64 77 64 156 l0 69 66 33
c146 72 257 220 284 382 43 248 -116 503 -358 578 -51 16 -93 20 -211 20 -180
1 -216 8 -258 54 -28 30 -33 43 -33 83 0 30 7 60 20 81 36 59 56 62 392 62
272 0 307 2 343 19 108 49 146 183 80 283 -39 59 -91 80 -216 86 l-107 5 -4
63 c-3 52 -9 70 -34 101 -49 61 -123 88 -198 72z"/>
<path d="M1732 2589 c-194 -21 -318 -95 -396 -239 -35 -65 -73 -213 -80 -320
-4 -47 -9 -113 -12 -147 l-6 -63 -41 0 c-94 0 -165 -41 -198 -115 -56 -121 32
-265 161 -265 26 0 49 -3 52 -6 8 -7 -32 -125 -61 -181 -11 -23 -48 -71 -81
-106 -91 -97 -109 -160 -71 -242 22 -48 54 -79 103 -100 32 -13 104 -15 495
-15 423 0 461 2 498 19 65 29 115 104 115 171 0 34 -22 91 -47 121 -54 64 -79
69 -365 69 -153 0 -258 4 -258 9 0 5 5 22 11 38 6 15 21 69 34 118 l23 90 218
6 c121 3 228 9 239 14 174 71 160 315 -20 364 -22 6 -124 11 -230 11 l-190 0
4 127 c6 232 29 261 206 264 148 2 176 -17 194 -132 18 -108 86 -169 190 -169
77 0 131 33 165 102 30 60 31 86 11 183 -32 150 -121 269 -255 339 -116 61
-216 75 -408 55z"/>
<path d="M4684 2570 c-89 -21 -145 -93 -145 -184 0 -30 6 -67 14 -83 8 -15
137 -176 286 -358 l270 -330 1 -92 0 -93 -103 0 c-95 0 -106 -2 -145 -27 -46
-30 -92 -107 -92 -152 0 -84 61 -169 135 -190 22 -6 77 -11 123 -11 l82 0 0
-127 c0 -149 9 -190 53 -240 39 -44 82 -63 142 -63 60 0 103 19 142 63 40 46
53 107 53 252 l0 113 98 4 c115 4 161 23 199 80 67 101 31 239 -74 284 -20 9
-69 14 -128 14 l-95 0 0 93 0 92 270 330 c148 182 276 344 285 362 19 39 19
113 1 156 -18 44 -77 94 -127 107 -54 15 -125 -2 -167 -38 -17 -15 -126 -144
-242 -287 -116 -143 -214 -259 -217 -258 -3 0 -104 122 -225 270 -138 169
-233 276 -256 289 -44 26 -95 35 -138 24z"/>
</g>
</svg>
